<?xml version="1.0" standalone="no"?>
<!DOCTYPE svg PUBLIC "-//W3C//DTD SVG 20010904//EN"
 "http://www.w3.org/TR/2001/REC-SVG-20010904/DTD/svg10.dtd">
<svg version="1.0" xmlns="http://www.w3.org/2000/svg"
 width="4348.000000pt" height="3375.000000pt" viewBox="0 0 4348.000000 3375.000000"
 preserveAspectRatio="xMidYMid meet">

<g transform="translate(0.000000,3375.000000) scale(0.100000,-0.100000)"
fill="#000000" stroke="none">
<path d="M24225 32746 c-504 -174 -973 -335 -1125 -386 -80 -27 -305 -104
-500 -170 -195 -67 -393 -134 -440 -150 -47 -16 -211 -72 -365 -125 -154 -53
-318 -109 -365 -125 -47 -16 -204 -70 -350 -120 -146 -50 -344 -117 -440 -150
-96 -32 -328 -111 -515 -175 -187 -64 -380 -130 -430 -146 -49 -16 -99 -34
-110 -39 -11 -5 -83 -30 -160 -55 -77 -25 -149 -50 -160 -55 -11 -5 -103 -37
-205 -71 -102 -34 -322 -108 -490 -166 -168 -57 -384 -131 -480 -163 -327
-110 -535 -181 -555 -190 -11 -4 -123 -43 -250 -85 -126 -42 -239 -81 -250
-85 -11 -5 -87 -32 -170 -59 -82 -28 -217 -74 -300 -102 -177 -61 -873 -298
-995 -339 -47 -16 -184 -63 -305 -105 -121 -42 -278 -96 -350 -120 -71 -24
-256 -87 -410 -140 -154 -53 -359 -122 -455 -155 -96 -32 -321 -109 -500 -170
-179 -61 -390 -133 -470 -160 -80 -27 -244 -83 -365 -125 -354 -122 -652 -224
-775 -265 -63 -21 -234 -80 -380 -130 -146 -50 -339 -115 -430 -146 -91 -30
-174 -59 -185 -64 -11 -5 -114 -40 -230 -79 -115 -39 -257 -87 -315 -107 -184
-63 -770 -263 -920 -314 -80 -27 -278 -94 -440 -150 -162 -56 -329 -112 -370
-126 -41 -14 -84 -29 -95 -33 -11 -5 -51 -18 -90 -30 -38 -12 -79 -26 -90 -31
-11 -5 -87 -31 -170 -59 -82 -27 -181 -62 -220 -76 -38 -14 -72 -25 -74 -25
-2 0 5 -8 15 -17 10 -10 39 -40 63 -68 25 -27 85 -95 135 -149 122 -133 125
-137 225 -245 47 -52 91 -99 96 -105 6 -7 37 -41 70 -76 33 -36 107 -117 165
-180 58 -63 132 -144 165 -180 33 -36 83 -90 110 -120 28 -31 99 -108 159
-172 59 -65 122 -134 140 -154 17 -21 45 -52 61 -68 49 -50 533 -578 616 -671
24 -27 51 -57 59 -65 9 -8 62 -67 120 -130 57 -63 107 -117 110 -120 3 -3 50
-54 105 -115 55 -60 109 -119 120 -130 23 -24 195 -212 210 -229 6 -7 37 -41
70 -76 49 -53 229 -249 270 -294 156 -172 221 -243 270 -296 166 -178 194
-209 240 -260 27 -30 81 -89 119 -131 75 -80 218 -237 249 -273 10 -12 37 -41
60 -66 63 -68 271 -293 282 -306 23 -25 173 -189 205 -224 19 -20 71 -77 115
-125 44 -49 106 -116 137 -149 56 -59 67 -82 50 -101 -5 -6 -15 -26 -22 -45
-8 -19 -24 -57 -36 -85 -12 -27 -34 -79 -49 -115 -15 -36 -35 -83 -46 -106
-10 -22 -28 -65 -39 -95 -12 -30 -51 -121 -87 -204 -90 -206 -85 -195 -143
-335 -55 -131 -76 -180 -116 -268 -13 -29 -24 -55 -24 -58 0 -5 -23 -59 -136
-321 -33 -76 -45 -105 -99 -233 -31 -74 -63 -148 -71 -165 -7 -16 -47 -111
-89 -210 -41 -99 -80 -189 -85 -200 -5 -11 -37 -85 -71 -165 -33 -80 -68 -161
-76 -180 -21 -49 -33 -76 -98 -230 -54 -127 -75 -177 -96 -225 -4 -11 -36 -85
-70 -165 -34 -80 -72 -169 -85 -198 -13 -29 -24 -55 -24 -57 0 -3 -10 -27 -21
-53 -27 -61 -41 -92 -74 -172 -15 -36 -38 -89 -51 -118 -13 -29 -24 -55 -24
-57 0 -2 -11 -28 -24 -57 -13 -29 -41 -93 -61 -143 -20 -49 -48 -114 -61 -143
-13 -29 -24 -55 -24 -57 0 -2 -11 -28 -24 -57 -37 -81 -146 -338 -146 -343 0
-2 -14 -35 -31 -72 -17 -38 -40 -90 -51 -118 -11 -27 -30 -73 -44 -103 -13
-29 -24 -55 -24 -57 0 -2 -11 -28 -24 -57 -13 -29 -41 -93 -61 -143 -20 -49
-48 -114 -61 -143 -13 -29 -24 -55 -24 -57 0 -2 -11 -28 -24 -57 -13 -29 -49
-114 -81 -188 -62 -147 -82 -194 -96 -225 -14 -32 -78 -184 -106 -250 -14 -33
-36 -84 -49 -113 -13 -29 -24 -55 -24 -57 0 -4 -76 -184 -137 -325 -9 -19 -22
-51 -30 -70 -9 -19 -21 -48 -29 -65 -7 -16 -32 -75 -55 -130 -23 -55 -49 -118
-59 -140 -10 -22 -43 -101 -75 -175 -53 -125 -73 -173 -96 -225 -4 -11 -36
-85 -70 -165 -33 -80 -72 -169 -85 -198 -13 -29 -24 -55 -24 -57 0 -3 -9 -24
-19 -48 -11 -23 -38 -87 -61 -142 -23 -55 -53 -124 -66 -153 -13 -29 -24 -55
-24 -57 0 -2 -13 -34 -30 -70 -16 -36 -30 -71 -30 -78 0 -7 -4 -17 -8 -22 -5
-6 -19 -35 -31 -65 -13 -30 -29 -70 -37 -87 -8 -18 -20 -48 -28 -65 -8 -18
-23 -53 -34 -78 -11 -25 -40 -94 -65 -155 -24 -60 -57 -137 -72 -170 -33 -73
-30 -67 -106 -245 -33 -80 -67 -158 -75 -175 -7 -16 -45 -106 -84 -200 -65
-155 -85 -200 -111 -260 -5 -11 -29 -69 -55 -130 -25 -60 -55 -130 -66 -155
-28 -64 -31 -69 -99 -230 -33 -80 -68 -161 -76 -180 -8 -19 -19 -44 -23 -55
-4 -11 -15 -36 -23 -55 -8 -19 -41 -96 -72 -170 -31 -74 -68 -159 -81 -188
-13 -29 -24 -55 -24 -57 0 -3 -9 -24 -19 -48 -11 -23 -32 -71 -47 -107 -14
-36 -35 -85 -46 -110 -23 -52 -26 -58 -107 -250 -34 -80 -68 -158 -75 -175 -8
-16 -44 -102 -81 -190 -37 -88 -78 -184 -91 -213 -13 -29 -24 -55 -24 -57 0
-2 -11 -28 -24 -57 -13 -29 -41 -93 -61 -143 -20 -49 -45 -108 -55 -130 -10
-22 -48 -112 -85 -200 -37 -88 -75 -178 -85 -200 -10 -22 -41 -96 -70 -165
-29 -69 -66 -153 -81 -188 -16 -34 -29 -65 -29 -67 0 -3 -10 -27 -21 -53 -25
-54 -28 -62 -104 -242 -31 -74 -63 -150 -71 -168 -24 -55 -40 -92 -99 -232
-31 -74 -65 -153 -75 -175 -10 -22 -34 -78 -53 -125 -32 -78 -95 -226 -116
-275 -21 -47 -41 -94 -64 -150 -57 -138 -102 -242 -141 -328 -14 -32 -26 -60
-26 -64 0 -3 -16 -42 -36 -87 -20 -44 -43 -96 -50 -114 -8 -17 -20 -47 -28
-65 -8 -17 -24 -56 -35 -84 -12 -29 -30 -76 -41 -103 l-20 -50 52 -58 c28 -31
115 -124 193 -207 78 -82 206 -220 285 -305 179 -193 393 -422 566 -605 72
-77 146 -156 164 -175 17 -19 80 -86 138 -149 59 -63 112 -119 117 -126 16
-17 142 -153 220 -235 39 -41 135 -145 215 -230 79 -85 180 -193 224 -240 45
-47 137 -146 206 -220 69 -74 138 -148 154 -165 15 -16 76 -82 135 -145 58
-63 144 -155 191 -205 47 -50 141 -151 211 -225 108 -117 487 -523 658 -705
31 -33 153 -163 271 -290 118 -126 244 -261 280 -300 194 -207 249 -266 424
-455 49 -52 107 -112 128 -134 l40 -39 15 34 c8 19 19 43 23 54 4 11 15 36 23
55 9 19 25 58 36 86 11 28 29 72 40 98 12 25 30 66 41 91 11 25 20 47 20 50 0
3 9 27 21 53 20 44 25 58 48 115 5 12 20 47 34 77 38 83 52 117 87 205 17 44
45 108 61 143 16 35 29 65 29 68 0 5 38 92 51 116 5 10 9 25 9 33 0 8 5 15 10
15 6 0 10 7 10 15 0 8 11 38 23 67 13 29 30 69 37 88 18 47 68 161 80 182 6
10 10 25 10 33 0 8 5 15 10 15 6 0 10 7 10 15 0 8 27 79 61 157 74 174 81 190
108 250 11 26 21 50 21 53 0 6 48 114 60 137 6 10 10 22 10 27 0 6 14 41 31
78 17 37 35 77 39 88 4 11 15 36 23 55 9 19 24 58 35 85 11 28 32 77 47 110
36 80 67 153 85 200 5 11 18 42 30 69 12 27 30 72 41 100 11 28 32 76 46 106
14 30 29 65 34 78 22 56 28 70 46 112 11 25 32 77 48 115 16 39 32 74 37 79 4
6 8 18 8 28 0 10 5 18 10 18 6 0 10 7 10 15 0 8 4 23 9 33 5 9 13 28 19 42 5
14 17 41 25 60 8 19 27 64 42 100 15 36 33 80 41 97 8 18 21 49 29 68 8 19 22
51 30 70 8 19 21 50 29 67 8 18 26 62 41 98 32 78 50 120 77 180 11 25 24 55
29 68 20 50 28 70 53 125 14 32 26 60 26 62 0 3 9 25 20 50 11 25 29 65 40 90
11 25 20 49 20 54 0 5 9 26 19 48 25 50 51 110 51 117 0 3 14 36 31 73 17 37
35 78 40 91 5 12 14 33 19 47 6 14 14 35 19 48 5 12 16 38 24 57 9 19 24 55
35 80 11 25 29 68 42 95 23 53 38 88 50 120 9 24 34 82 55 127 8 18 23 56 33
83 11 28 32 77 47 110 15 33 31 69 35 80 4 11 15 36 23 55 9 19 24 58 35 85
11 28 34 80 51 118 17 37 31 70 31 72 0 3 10 27 21 53 35 78 47 105 67 157 11
28 34 80 51 118 17 37 31 70 31 72 0 3 9 27 21 53 12 26 25 56 29 67 4 11 15
36 23 55 8 19 25 60 38 90 12 30 26 59 31 65 4 5 8 15 8 23 0 7 14 43 31 80
17 37 35 76 39 87 4 11 15 36 23 55 9 20 30 71 47 115 18 43 36 86 40 94 12
24 52 113 60 136 4 11 15 36 23 55 8 19 32 76 52 125 41 101 58 140 87 205 11
25 24 54 28 65 7 17 58 139 107 255 8 19 24 55 35 80 11 25 24 54 28 65 4 11
15 36 23 55 8 19 27 64 42 100 15 36 34 81 42 100 8 19 19 44 23 55 12 29 35
84 58 136 12 25 30 68 41 96 11 28 29 71 40 97 12 25 30 66 41 91 11 25 20 47
20 50 0 2 11 28 23 57 13 29 38 89 56 133 18 44 42 100 53 125 11 25 24 54 29
65 28 66 133 316 146 345 28 65 32 75 94 220 69 164 78 186 108 252 11 26 21
52 21 58 0 6 5 18 10 28 6 9 25 53 44 97 18 44 43 103 56 130 23 53 38 87 50
120 5 11 17 41 29 67 12 26 21 50 21 53 0 2 12 30 26 62 25 56 39 86 71 163 8
19 19 44 24 55 5 11 29 70 54 130 26 61 53 126 62 145 18 40 41 96 53 125 4
11 15 36 23 55 8 19 32 76 52 125 20 50 47 113 60 140 46 101 65 145 65 153 0
5 11 32 25 60 14 29 25 54 25 57 0 6 57 135 70 157 6 10 10 22 10 28 0 10 10
34 66 158 13 29 24 55 24 57 0 3 9 27 21 53 12 26 25 56 29 67 4 11 16 38 25
60 10 22 24 55 31 73 8 17 21 47 29 66 8 19 15 37 15 40 0 3 14 36 31 73 17
37 35 77 39 88 4 11 16 38 25 60 10 22 24 56 32 75 8 19 19 44 24 55 5 11 17
43 28 70 10 28 31 77 46 110 15 33 34 76 42 95 28 64 45 105 53 125 28 71 56
137 77 185 14 30 29 64 33 75 4 11 15 36 23 55 8 19 31 73 50 120 19 47 47
112 62 145 15 33 31 69 35 80 4 11 12 31 18 45 9 23 15 37 54 130 9 19 30 69
48 110 34 78 57 131 70 165 12 30 35 84 59 137 12 26 21 49 21 53 0 3 10 27
21 53 12 26 27 61 34 77 12 28 23 53 59 138 8 17 26 61 41 97 32 78 50 120 77
180 11 25 24 54 28 65 5 11 17 41 29 67 12 26 21 51 21 56 0 5 8 26 19 48 10
21 25 55 34 74 8 19 24 56 36 82 11 26 21 50 21 53 0 3 10 27 21 53 26 57 40
90 70 162 12 30 26 59 31 65 4 5 8 15 8 23 0 7 14 43 31 80 17 37 35 76 39 87
4 11 15 36 23 55 9 19 24 58 35 85 11 28 34 80 51 118 17 37 31 71 31 76 0 4
6 21 14 37 8 16 21 45 29 64 8 19 26 61 41 93 14 32 26 60 26 62 0 3 9 27 21
53 12 26 24 56 29 67 16 43 28 72 48 115 12 25 40 90 62 145 23 55 49 116 57
135 8 19 20 46 25 60 6 14 14 33 19 42 5 10 9 25 9 33 0 8 5 15 10 15 6 0 10
7 10 15 0 8 4 23 9 33 5 9 21 46 36 82 29 68 51 120 85 195 11 25 20 47 20 50
0 3 8 24 19 48 10 23 31 71 46 107 15 36 37 85 47 110 11 25 24 54 28 65 4 11
15 36 23 55 8 19 41 96 72 170 31 74 64 151 72 170 8 19 20 46 25 60 34 81
119 282 140 330 11 25 24 55 29 68 5 12 13 32 18 45 5 12 18 43 30 69 12 26
21 50 21 53 0 2 12 30 26 62 77 171 85 190 133 311 23 56 45 110 50 120 5 9
16 33 24 52 8 19 21 51 30 70 8 19 39 91 67 160 29 69 63 149 76 178 13 29 24
59 24 67 0 8 5 15 10 15 6 0 10 7 10 15 0 8 4 23 10 33 5 9 28 62 51 117 22
55 48 116 56 135 8 19 19 44 23 55 4 11 22 50 39 87 17 37 31 71 31 75 0 9 41
102 60 135 6 10 10 22 10 28 0 5 11 33 24 62 13 29 47 109 76 178 29 69 61
145 72 170 11 25 23 54 28 65 10 27 25 63 43 105 78 180 97 225 97 237 0 7 5
13 10 13 6 0 10 7 10 15 0 8 4 23 9 33 5 9 16 34 25 55 9 20 22 52 30 70 7 17
33 77 56 132 23 55 49 116 57 135 8 19 19 44 23 55 9 23 33 79 54 128 8 17 29
66 46 107 18 41 39 91 47 110 8 19 19 44 23 55 4 11 17 41 29 67 12 26 21 50
21 53 0 2 11 28 24 57 51 114 66 148 66 153 0 3 9 27 21 53 12 26 25 56 29 67
12 30 35 84 59 137 12 26 21 50 21 53 0 3 14 36 31 73 17 37 35 77 40 90 5 12
13 32 18 45 5 12 16 38 24 57 8 19 27 64 42 100 15 36 36 85 47 110 24 53 47
107 58 135 4 11 17 41 29 67 12 26 21 50 21 53 0 2 11 28 24 57 51 114 66 148
66 153 0 3 9 27 21 53 12 26 25 56 29 67 4 11 20 46 34 78 14 32 26 60 26 62
0 5 16 43 62 145 20 44 33 75 48 115 5 11 15 36 23 55 8 19 27 64 42 100 15
36 38 89 51 118 13 29 24 55 24 57 0 3 9 24 20 48 10 23 28 65 38 92 11 28 31
75 45 105 50 111 67 150 67 155 0 6 118 285 169 397 11 26 21 50 21 53 0 2 14
34 30 70 17 36 30 68 30 70 0 2 12 30 26 62 14 32 30 67 34 78 13 32 61 146
81 192 11 23 19 44 19 47 0 3 14 35 30 71 17 36 30 68 30 70 0 3 10 27 21 53
27 61 41 92 74 172 15 36 38 89 51 118 13 29 24 55 24 57 0 3 9 27 21 53 12
26 25 57 30 70 5 12 13 32 18 45 5 12 19 45 31 72 12 28 28 64 35 80 7 17 20
47 29 68 43 100 64 149 76 182 4 11 20 46 34 78 14 32 26 60 26 62 0 2 14 34
30 70 17 36 30 68 30 70 0 3 9 27 21 53 12 26 25 56 29 67 4 11 20 46 34 78
14 32 26 60 26 64 0 3 16 42 36 87 37 82 59 134 74 171 4 11 15 36 23 55 8 19
43 100 76 180 69 161 70 166 100 232 12 26 21 50 21 53 0 2 12 30 26 62 14 32
31 69 36 83 6 14 14 33 19 42 5 10 9 25 9 33 0 8 5 15 10 15 6 0 10 8 10 18 0
10 4 22 9 28 4 5 25 51 45 102 20 51 46 114 57 140 12 26 27 61 34 77 7 17 20
48 30 70 9 22 21 49 25 60 11 27 58 140 83 195 10 25 26 60 33 78 8 17 21 49
30 70 9 20 20 46 24 57 4 11 17 41 29 67 12 26 21 50 21 53 0 2 12 30 26 62
14 32 30 67 34 78 4 11 17 41 29 67 12 26 21 50 21 53 0 5 15 39 66 153 13 29
24 55 24 57 0 3 9 27 21 53 12 26 25 56 29 67 4 11 15 37 24 58 9 20 22 52 30
70 73 174 105 246 127 290 10 22 19 43 19 48 0 5 9 31 21 57 12 26 25 56 29
67 5 11 20 46 34 78 14 32 26 60 26 62 0 2 11 28 24 57 28 62 56 129 56 134 0
7 -10 4 -195 -60z"/>
<path d="M25003 32648 c-6 -7 -28 -56 -48 -108 -45 -115 -49 -125 -69 -171
-18 -41 -244 -600 -283 -699 -14 -36 -31 -78 -38 -95 -7 -16 -21 -50 -30 -75
-10 -25 -23 -58 -30 -75 -8 -16 -23 -55 -35 -85 -11 -30 -30 -74 -40 -97 -11
-24 -20 -46 -20 -51 0 -5 -9 -27 -20 -50 -11 -22 -20 -46 -20 -52 0 -5 -4 -18
-9 -28 -17 -32 -48 -106 -132 -319 -21 -54 -28 -71 -48 -115 -12 -26 -21 -54
-21 -61 0 -7 -4 -17 -8 -23 -5 -5 -21 -40 -36 -79 -42 -105 -42 -106 -65 -157
-12 -26 -21 -54 -21 -61 0 -7 -4 -17 -9 -23 -4 -5 -30 -65 -56 -134 -27 -69
-61 -153 -77 -188 -15 -34 -28 -67 -28 -72 0 -6 -4 -18 -9 -28 -9 -19 -11 -23
-67 -162 -20 -52 -41 -99 -46 -104 -4 -6 -8 -16 -8 -23 0 -7 -9 -35 -21 -61
-24 -54 -18 -40 -99 -242 -34 -85 -69 -171 -77 -190 -8 -19 -19 -44 -23 -55
-80 -203 -145 -366 -155 -390 -7 -16 -41 -100 -75 -185 -34 -85 -70 -173 -79
-195 -10 -22 -66 -161 -126 -310 -59 -148 -116 -289 -126 -312 -11 -24 -19
-47 -19 -52 0 -5 -6 -22 -14 -38 -18 -35 -39 -85 -61 -143 -20 -53 -28 -73
-48 -120 -8 -19 -29 -71 -47 -115 -17 -44 -36 -91 -42 -105 -6 -14 -15 -35
-19 -47 -5 -13 -13 -33 -18 -45 -11 -31 -26 -66 -44 -108 -29 -65 -46 -125
-39 -131 4 -3 88 -38 187 -78 99 -40 194 -79 210 -86 17 -7 95 -38 175 -70 80
-31 164 -66 187 -76 24 -10 49 -19 56 -19 7 0 17 -4 23 -9 5 -5 59 -27 119
-51 61 -23 126 -49 145 -57 45 -19 80 -34 108 -44 43 -17 67 -27 112 -47 25
-11 66 -27 92 -36 26 -8 69 -25 95 -37 26 -11 57 -24 68 -29 11 -4 34 -13 50
-20 17 -7 40 -17 53 -21 64 -25 324 -130 362 -146 43 -18 78 -33 105 -43 142
-56 312 -125 320 -132 5 -4 15 -8 22 -8 7 0 32 -8 56 -19 23 -10 112 -47 197
-81 85 -34 169 -68 185 -75 118 -50 412 -165 423 -165 6 0 12 -4 12 -10 0 -5
6 -10 13 -10 13 0 189 -66 252 -94 67 -31 103 -46 170 -71 39 -15 84 -33 100
-40 17 -8 57 -23 90 -35 33 -13 64 -26 70 -31 5 -5 15 -9 22 -9 7 0 35 -9 61
-21 26 -12 58 -26 72 -31 14 -6 33 -14 42 -19 10 -5 22 -9 28 -9 5 0 33 -11
62 -23 29 -13 80 -34 113 -47 33 -13 64 -27 70 -32 5 -4 15 -8 22 -8 7 0 35
-9 61 -21 26 -12 57 -25 70 -30 12 -5 32 -13 45 -18 12 -5 81 -33 152 -61 72
-29 146 -59 165 -67 45 -19 80 -34 105 -43 91 -35 368 -146 400 -160 22 -10
117 -48 210 -85 94 -37 188 -75 210 -85 22 -9 61 -25 87 -35 60 -22 57 -29
-64 -131 -51 -43 -95 -80 -98 -83 -5 -6 -113 -99 -170 -147 -14 -12 -63 -55
-110 -96 -47 -41 -130 -112 -185 -158 -55 -46 -102 -87 -105 -90 -3 -3 -32
-28 -65 -55 -33 -28 -78 -66 -100 -86 -22 -20 -56 -50 -75 -65 -19 -16 -40
-33 -46 -39 -6 -5 -37 -32 -69 -60 -32 -27 -63 -55 -69 -60 -6 -6 -56 -49
-111 -95 -55 -47 -102 -87 -105 -90 -3 -3 -32 -28 -65 -55 -33 -28 -62 -52
-65 -55 -3 -3 -36 -32 -75 -65 -38 -33 -75 -64 -81 -70 -10 -10 -102 -88 -279
-240 -45 -38 -106 -90 -135 -115 -30 -25 -73 -61 -95 -81 -22 -20 -56 -49 -74
-65 -19 -16 -53 -45 -75 -65 -23 -20 -52 -45 -66 -56 -57 -47 -471 -402 -480
-412 -3 -3 -32 -28 -65 -56 -98 -82 -253 -214 -350 -300 -33 -29 -76 -65 -95
-81 -19 -16 -42 -36 -50 -44 -8 -9 -25 -23 -38 -32 -12 -8 -39 -30 -60 -49
-20 -19 -68 -61 -107 -94 -38 -33 -72 -62 -75 -65 -3 -3 -32 -27 -65 -55 -33
-27 -76 -64 -95 -82 -42 -38 -62 -55 -126 -108 -26 -22 -52 -45 -58 -50 -6 -6
-74 -64 -151 -130 -77 -65 -142 -122 -145 -125 -3 -3 -32 -27 -65 -55 -33 -27
-76 -64 -95 -82 -19 -17 -48 -42 -65 -55 -16 -12 -39 -32 -51 -43 -11 -11 -42
-38 -69 -60 -27 -22 -72 -60 -100 -85 -28 -25 -80 -70 -115 -100 -36 -30 -85
-73 -110 -95 -26 -22 -73 -62 -105 -90 -32 -27 -63 -55 -69 -60 -6 -6 -36 -30
-66 -55 -30 -25 -73 -61 -95 -81 -22 -20 -56 -50 -75 -65 -19 -16 -71 -60
-115 -99 -45 -38 -112 -97 -150 -130 -37 -33 -83 -71 -101 -85 -17 -14 -130
-110 -250 -213 -121 -104 -230 -199 -244 -210 -31 -26 -152 -131 -195 -169
-16 -14 -100 -85 -185 -158 -139 -118 -199 -170 -280 -240 -41 -36 -131 -114
-154 -133 -11 -10 -30 -26 -41 -35 -63 -54 -434 -373 -455 -392 -14 -12 -47
-40 -74 -63 -139 -118 -262 -222 -266 -226 -3 -4 -32 -28 -65 -56 -33 -27 -62
-52 -65 -55 -3 -3 -36 -32 -75 -65 -38 -33 -77 -67 -85 -75 -8 -8 -42 -37 -75
-64 -33 -28 -80 -68 -105 -90 -25 -23 -70 -61 -100 -86 -79 -66 -141 -119
-375 -320 -66 -57 -122 -106 -125 -110 -3 -3 -30 -25 -60 -50 -30 -25 -57 -47
-60 -50 -4 -5 -74 -65 -174 -150 -16 -14 -34 -30 -40 -35 -6 -6 -37 -32 -68
-59 -32 -27 -58 -51 -58 -55 1 -3 33 -30 73 -59 40 -29 135 -99 212 -155 77
-57 163 -118 190 -137 28 -19 55 -38 60 -42 6 -5 39 -30 75 -56 36 -25 67 -49
70 -52 3 -4 27 -21 54 -39 26 -19 76 -54 110 -80 34 -25 90 -66 125 -91 95
-68 234 -169 251 -183 8 -7 53 -39 100 -72 47 -33 92 -65 100 -72 17 -13 146
-108 264 -193 42 -30 107 -77 144 -105 38 -27 79 -58 93 -68 13 -9 72 -52 130
-95 58 -42 131 -95 163 -117 31 -22 91 -66 134 -98 42 -33 104 -77 137 -100
33 -22 62 -43 65 -47 3 -4 32 -25 65 -48 33 -22 128 -91 210 -152 83 -62 177
-130 210 -153 33 -22 62 -43 65 -47 3 -3 37 -28 75 -55 39 -27 72 -51 75 -54
3 -3 28 -21 55 -40 28 -19 82 -58 120 -86 164 -120 193 -141 219 -160 15 -11
46 -34 69 -51 23 -17 78 -57 122 -89 44 -32 103 -75 130 -95 28 -20 93 -67
145 -105 52 -38 136 -99 185 -135 50 -37 115 -84 145 -106 30 -21 60 -42 65
-47 6 -4 64 -46 130 -94 66 -48 154 -111 195 -141 41 -31 93 -68 115 -84 22
-16 98 -71 168 -123 70 -52 130 -95 133 -95 3 0 11 -6 18 -12 8 -7 39 -31 70
-53 32 -22 66 -47 76 -55 10 -8 44 -33 75 -55 31 -22 86 -63 123 -90 37 -28
102 -75 144 -104 l77 -54 53 41 c29 23 67 53 83 68 17 14 50 42 74 62 24 21
49 42 55 47 6 6 47 39 91 75 44 35 82 67 85 70 3 3 32 28 65 55 33 28 62 52
65 55 3 3 70 59 150 125 80 66 154 127 165 137 36 30 290 242 339 283 27 22
54 45 60 50 6 6 76 64 156 130 160 133 185 154 244 205 23 20 79 67 126 105
96 78 113 92 143 118 12 11 42 35 66 55 24 21 49 42 55 47 15 13 72 61 131
110 27 22 53 45 59 50 6 6 34 28 61 50 28 22 61 50 75 61 32 28 180 152 200
167 14 11 183 152 240 201 14 11 52 44 85 71 33 28 65 55 71 60 6 6 26 22 45
37 19 14 45 36 59 48 14 12 45 39 70 59 25 20 50 41 56 46 6 6 30 27 55 47 87
73 197 164 255 213 178 149 241 201 258 215 10 8 51 42 90 76 39 33 150 125
246 204 96 79 177 147 180 150 3 3 32 28 65 55 33 28 62 52 65 55 10 10 127
106 175 145 28 22 52 42 55 45 3 3 32 27 65 55 33 27 62 52 65 55 3 3 30 25
60 50 30 25 66 55 80 66 61 52 180 152 218 182 22 19 50 41 60 50 11 10 41 35
68 57 26 22 122 102 213 178 91 76 173 144 181 150 22 18 328 275 371 311 20
17 44 38 55 46 11 8 73 60 139 115 66 55 129 107 140 116 11 10 67 57 125 106
58 48 130 108 160 133 30 25 68 57 85 71 16 15 91 77 165 139 74 61 155 128
179 148 24 20 57 48 74 62 17 14 76 63 131 110 56 46 110 92 121 101 11 9 65
54 120 100 55 46 123 102 150 124 55 44 89 72 149 126 41 35 164 137 236 194
31 24 278 232 364 306 12 10 55 46 97 81 42 35 102 85 135 113 32 27 100 83
149 124 50 42 92 78 95 81 3 3 41 34 85 70 44 35 85 69 91 75 6 5 33 28 60 50
26 22 96 80 154 128 58 49 114 96 125 105 60 49 141 117 145 122 3 3 55 46
115 95 61 49 112 92 115 95 4 5 118 101 250 210 114 95 320 266 364 304 28 22
84 69 125 104 42 35 96 80 121 101 25 21 74 62 110 92 36 29 70 58 76 64 6 5
55 46 109 90 54 44 110 91 125 105 15 14 44 38 64 54 36 29 258 212 351 291
95 81 250 210 297 248 26 21 53 43 60 50 7 7 87 74 178 149 91 75 203 169 250
208 47 39 119 99 160 133 41 34 82 68 90 77 8 8 31 27 50 42 19 14 44 34 55
44 11 11 45 39 75 64 30 25 64 53 75 64 11 10 36 30 55 44 19 15 42 34 50 42
8 9 38 34 65 55 28 22 52 42 55 45 3 3 30 25 60 50 30 25 57 47 60 50 3 3 27
24 55 45 27 22 59 49 71 60 11 11 65 56 118 100 54 44 106 87 116 95 70 60
191 161 280 235 58 48 125 104 150 125 48 40 166 138 240 198 65 54 304 255
310 262 3 3 28 23 55 45 28 21 52 42 55 45 6 6 116 98 140 117 18 14 163 135
200 167 14 12 79 66 145 121 66 55 122 102 125 105 3 3 27 24 55 45 27 22 55
45 61 51 6 5 31 26 54 45 24 18 50 41 59 49 9 8 41 35 71 60 55 45 103 86 124
105 6 6 34 28 61 50 28 22 57 47 65 56 8 8 22 20 31 25 9 5 45 34 79 64 35 30
72 61 84 69 12 8 23 18 26 21 7 9 222 189 340 285 58 47 334 279 340 285 6 6
116 99 140 117 8 6 30 24 48 39 l34 27 -24 12 c-12 7 -266 110 -563 229 -577
232 -562 226 -615 249 -19 9 -55 23 -80 32 -25 9 -54 21 -65 26 -11 4 -58 24
-105 42 -47 19 -110 45 -140 57 -30 12 -65 26 -77 31 -13 5 -33 13 -45 19 -21
8 -215 86 -1293 519 -181 73 -344 139 -361 147 -17 7 -84 34 -150 60 -65 25
-135 53 -154 61 -39 17 -73 31 -110 46 -14 5 -36 14 -50 20 -14 5 -34 13 -45
18 -11 5 -67 27 -125 50 -58 22 -121 47 -140 56 -42 18 38 -14 -665 268 -324
130 -603 243 -620 250 -16 7 -111 45 -210 85 -218 87 -209 83 -267 109 -26 12
-54 21 -61 21 -7 0 -17 4 -23 9 -5 4 -54 25 -109 46 -55 21 -120 47 -145 57
-25 11 -55 24 -67 29 -13 5 -33 13 -45 18 -13 5 -383 154 -823 331 -440 177
-813 328 -830 335 -16 7 -88 36 -160 64 -71 28 -152 61 -180 73 -27 11 -59 24
-70 28 -11 5 -36 15 -56 24 -20 8 -78 32 -130 51 -79 30 -145 57 -284 115 -11
5 -330 133 -710 285 -379 153 -703 283 -720 290 -16 7 -55 23 -85 35 -30 12
-74 31 -97 41 -24 11 -47 19 -53 19 -6 0 -18 4 -28 9 -29 16 -106 48 -132 56
-23 7 -152 58 -230 92 -19 8 -45 19 -57 24 -13 5 -33 13 -45 18 -13 5 -44 18
-70 30 -26 12 -51 21 -54 21 -6 0 -1421 569 -1479 595 -16 7 -88 36 -160 64
-71 28 -152 61 -180 73 -27 11 -59 24 -70 28 -11 4 -33 13 -50 20 -16 7 -39
16 -50 20 -11 5 -40 17 -65 28 -25 11 -65 27 -90 35 -44 15 -96 36 -155 62
-16 8 -75 31 -130 53 -55 21 -284 113 -510 204 -225 92 -502 203 -615 248
-113 45 -218 88 -235 95 -16 8 -55 23 -85 35 -30 11 -69 27 -86 35 -17 8 -129
53 -250 101 -120 47 -235 93 -254 101 -19 8 -44 19 -55 23 -11 4 -41 17 -67
29 -26 12 -51 21 -54 21 -7 0 -220 85 -289 115 -16 7 -194 79 -395 160 -201
81 -370 149 -376 151 -6 3 -16 -1 -21 -8z"/>
<path d="M18365 15108 c-6 -19 -30 -108 -65 -243 -17 -66 -38 -145 -46 -175
-9 -30 -33 -122 -54 -205 -22 -82 -56 -211 -76 -285 -19 -74 -44 -166 -54
-205 -10 -38 -35 -133 -55 -210 -36 -133 -95 -356 -135 -510 -10 -38 -34 -128
-53 -200 -19 -71 -54 -202 -77 -290 -73 -278 -96 -367 -129 -490 -18 -66 -45
-169 -61 -230 -16 -60 -43 -164 -61 -230 -39 -149 -77 -290 -122 -465 -20 -74
-54 -202 -76 -285 -22 -82 -49 -186 -61 -230 -12 -44 -39 -147 -60 -230 -22
-82 -56 -211 -76 -285 -38 -143 -49 -185 -113 -430 -23 -85 -52 -198 -67 -250
-14 -52 -36 -135 -49 -185 -27 -101 -90 -342 -136 -515 -17 -63 -41 -155 -54
-205 -13 -49 -32 -124 -43 -165 -11 -41 -35 -129 -52 -195 -17 -66 -34 -123
-36 -126 -2 -4 39 -42 92 -85 53 -44 102 -84 108 -89 6 -6 108 -90 226 -186
118 -96 289 -235 379 -309 90 -74 180 -148 201 -165 20 -16 68 -55 106 -87 38
-31 162 -132 275 -225 113 -92 299 -244 414 -338 114 -93 249 -204 299 -245
51 -41 362 -295 690 -565 329 -269 615 -503 636 -520 49 -40 96 -78 349 -285
118 -96 307 -250 420 -343 113 -92 226 -185 251 -205 25 -21 131 -108 235
-193 163 -133 430 -351 584 -478 25 -20 63 -52 86 -71 23 -19 147 -120 275
-225 129 -104 315 -257 414 -338 100 -82 273 -224 386 -316 197 -160 622 -508
705 -577 22 -18 121 -99 220 -179 99 -81 239 -195 310 -254 157 -129 473 -388
599 -490 50 -41 165 -135 255 -209 l164 -134 276 11 c282 12 588 23 1066 41
149 6 383 15 520 20 138 5 367 14 510 20 143 5 382 14 530 20 149 6 684 26
1190 45 506 19 1039 39 1185 45 354 14 716 27 1050 40 151 6 388 15 525 20
138 5 372 14 520 20 149 6 385 15 525 20 140 6 435 17 655 25 220 8 519 20
665 25 302 12 647 25 1060 40 157 6 380 15 495 20 116 6 256 10 313 10 56 0
102 4 102 9 0 5 -26 28 -57 52 -32 24 -64 49 -73 56 -8 7 -71 54 -140 105 -69
51 -132 98 -140 105 -8 7 -100 75 -205 153 -104 77 -219 163 -255 190 -36 27
-94 71 -130 98 -110 82 -484 362 -500 375 -8 7 -69 52 -135 101 -66 49 -145
108 -175 131 -63 48 -143 108 -180 135 -14 10 -75 56 -136 102 -61 46 -123 92
-138 103 -28 21 -204 152 -312 234 -33 25 -73 56 -90 68 -24 17 -164 123 -284
213 -14 10 -107 80 -207 154 -100 74 -190 142 -200 150 -10 8 -227 172 -483
363 -256 191 -469 351 -475 356 -5 4 -39 29 -75 55 -36 25 -67 49 -70 52 -3 3
-21 17 -40 30 -19 13 -37 27 -40 30 -3 3 -194 147 -425 320 -231 173 -427 320
-435 327 -8 6 -89 67 -180 134 -91 67 -199 148 -240 178 -41 31 -82 62 -90 68
-8 7 -94 71 -190 143 -96 72 -204 153 -240 180 -36 27 -96 73 -135 102 -38 29
-117 88 -175 130 -58 43 -112 84 -120 91 -8 7 -31 23 -50 37 -19 14 -42 30
-50 37 -8 6 -64 49 -125 94 -60 46 -137 103 -171 128 -33 25 -73 56 -90 68
-80 59 -2253 1687 -2281 1708 -18 14 -162 122 -320 240 -158 119 -302 226
-318 239 -17 13 -179 134 -360 270 -182 136 -337 252 -345 259 -17 13 -455
341 -645 482 -66 49 -122 92 -125 95 -3 3 -48 37 -100 75 -52 38 -97 72 -100
75 -3 3 -21 17 -40 30 -19 14 -42 30 -50 37 -8 7 -193 145 -410 307 -217 162
-399 299 -405 303 -8 6 -1017 763 -1165 873 -91 68 -177 133 -190 143 -8 7
-139 105 -290 218 -151 113 -301 226 -334 250 -32 24 -73 54 -90 67 -17 12
-38 28 -46 35 -8 6 -58 43 -110 82 -52 38 -97 72 -100 75 -3 3 -86 66 -185
139 -99 74 -205 153 -235 175 -30 23 -57 43 -60 46 -8 8 -123 93 -160 119 -19
13 -37 27 -40 30 -3 4 -21 18 -40 31 -19 14 -42 30 -50 37 -8 7 -76 58 -150
113 -74 55 -142 106 -150 113 -8 7 -31 23 -50 37 -19 14 -42 30 -50 37 -8 7
-53 40 -100 75 -47 34 -87 65 -90 68 -3 3 -21 17 -40 30 -19 13 -37 27 -40 30
-3 3 -39 30 -80 61 -209 156 -517 385 -530 396 -8 6 -116 87 -239 179 -123 91
-231 172 -240 180 -35 29 -434 324 -438 324 -2 0 -6 -6 -8 -12z"/>
</g>
</svg>
